# xmcd
#
# Track frame offsets:
#  182
#  11455
#  26345
#  37230
#  48422
#  61470
#  80280
#  91827
#  114220
#  126180
#  138405
#  151267
#  166040
#  176992
#  188317
#  200785
#  216575
#  227880
#  240475
#  252157
#
# Disc length: 3527 seconds
#
# Revision: 2
# Processed by: cddbd v1.5.1PL2 Copyright (c) Steve Scherf et al.
# Submitted via: Collectorz.com_Music_Collector 6.10
#
DISCID=080dc514
DTITLE=Various Artist - Originals Blues Vol.1
DYEAR=1989
DGENRE=Blues
TTITLE0=Little Walter - My Baby
TTITLE1=Waters, Muddy - Baby Please Don't Go
TTITLE2=Howlin' Wolf - The Red Rooster
TTITLE3=Hooker John Lee - Boom Boom
TTITLE4=James Elmore - Dust My Broom
TTITLE5=Waters, Muddy - I Got My Mojo Working
TTITLE6=BB King - Every Day I Have The Blues
TTITLE7=Howlin' Wolf - Wang Dans Doodle
TTITLE8=Hooker John Lee - Crawling King Snake
TTITLE9=James Elmore - The Sky Is Crying
TTITLE10=Waters, Muddy - I Just Want To Make Love To You
TTITLE11=BB King - Bb Boogie
TTITLE12=Howlin' Wolf - Yoùll Be Mine
TTITLE13=Sonny Boy Williamson - Born Blind
TTITLE14=Little Walter - Tell Me Mam
TTITLE15=Lightnin Hopkins - Coffee For Mama
TTITLE16=James Elmore - Shake Your Moneymaker
TTITLE17=Howlin' Wolf - Killing Floor
TTITLE18=Waters, Muddy - Goin' Home
TTITLE19=James Elmore - Standing At The Crossroads
EXTD=
EXTT0=
EXTT1=
EXTT2=
EXTT3=
EXTT4=
EXTT5=
EXTT6=
EXTT7=
EXTT8=
EXTT9=
EXTT10=
EXTT11=
EXTT12=
EXTT13=
EXTT14=
EXTT15=
EXTT16=
EXTT17=
EXTT18=
EXTT19=
PLAYORDER=
